<svg width="220" height="220" viewBox="0 0 220 220" xmlns="http://www.w3.org/2000/svg"><rect width="220" height="220" fill="#fff"/><g fill="#111"><rect x="10" y="10" width="60" height="60"/><rect x="20" y="20" width="40" height="40" fill="#fff"/><rect x="30" y="30" width="20" height="20"/><rect x="150" y="10" width="60" height="60"/><rect x="160" y="20" width="40" height="40" fill="#fff"/><rect x="170" y="30" width="20" height="20"/><rect x="10" y="150" width="60" height="60"/><rect x="20" y="160" width="40" height="40" fill="#fff"/><rect x="30" y="170" width="20" height="20"/>
<path d="M86 10h14v14H86zm28 0h14v28h-14zm-28 28h14v14H86zm14 14h28v14h-28zM80 80h14v14H80zm20 0h14v28h-14zm20 0h14v14h-14zm20 0h14v28h-14zm20 0h14v14h-14zM80 100h14v14H80zm40 8h14v14h-14zm40 0h14v28h-14zM80 124h28v14H80zm36 0h14v14h-14zm24 0h14v14h-14zM86 148h14v28H86zm20 0h28v14h-28zm38 0h14v14h-14zm20 0h14v14h-14zM100 170h14v14h-14zm20 0h14v28h-14zm20 0h28v14h-28zm38 0h14v28h-14zM86 194h28v14H86zm58 0h14v14h-14z"/></g></svg>
